HIERARCHY
ROOT Pelvis
{
	OFFSET 0.000000 0.000000 0.000000
	CHANNELS 6 Xposition Yposition Zposition Xrotation Yrotation Zrotation
	JOINT LeftUpLeg_virtual
	{
		OFFSET 0.000000 0.000000 0.000000
		CHANNELS 3 Xrotation Yrotation Zrotation
		JOINT LeftUpLeg
		{
			OFFSET 18.735201 -5.666702 -4.541200
			CHANNELS 3 Xrotation Yrotation Zrotation
			JOINT LeftLeg
			{
				OFFSET -0.021200 -31.938179 0.493100
				CHANNELS 3 Xrotation Yrotation Zrotation
				JOINT LeftFoot
				{
					OFFSET 0.021200 -31.938179 -4.336299
					CHANNELS 3 Xrotation Yrotation Zrotation
					JOINT LeftToeBase
					{
						OFFSET 0.943001 -26.722000 15.023500
						CHANNELS 3 Xrotation Yrotation Zrotation
						End Site
						{
							OFFSET 0 0 0
						}
					}
				}
			}
		}
	}
	JOINT RightUpLeg_virtual
	{
		OFFSET 0.000000 0.000000 0.000000
		CHANNELS 3 Xrotation Yrotation Zrotation
		JOINT RightUpLeg
		{
			OFFSET -18.735201 -5.666702 -4.541200
			CHANNELS 3 Xrotation Yrotation Zrotation
			JOINT RightLeg
			{
				OFFSET 0.018946 -31.938133 0.493100
				CHANNELS 3 Xrotation Yrotation Zrotation
				JOINT RightFoot
				{
					OFFSET -0.018946 -31.938126 -4.336299
					CHANNELS 3 Xrotation Yrotation Zrotation
					JOINT RightToeBase
					{
						OFFSET -0.943001 -26.722004 15.023500
						CHANNELS 3 Xrotation Yrotation Zrotation
						End Site
						{
							OFFSET 0 0 0
						}
					}
				}
			}
		}
	}
	JOINT Hips_virtual
	{
		OFFSET 0.000000 0.000000 0.000000
		CHANNELS 3 Xrotation Yrotation Zrotation
		JOINT Hips
		{
			OFFSET -0.000000 -0.000000 -0.000000
			CHANNELS 3 Xrotation Yrotation Zrotation
			JOINT Spine
			{
				OFFSET 0.000000 10.199997 -0.299500
				CHANNELS 3 Xrotation Yrotation Zrotation
				JOINT Spine1
				{
					OFFSET 0.000000 11.900002 -1.516600
					CHANNELS 3 Xrotation Yrotation Zrotation
					JOINT Spine2
					{
						OFFSET 0.000000 13.600006 -2.842500
						CHANNELS 3 Xrotation Yrotation Zrotation
						JOINT Neck_virtual
						{
							OFFSET 0.000000 0.000000 0.000000
							CHANNELS 3 Xrotation Yrotation Zrotation
							JOINT Neck
							{
								OFFSET 0.000000 9.624100 -2.890100
								CHANNELS 3 Xrotation Yrotation Zrotation
								JOINT Head
								{
									OFFSET 0.000000 14.068802 -1.351900
									CHANNELS 3 Xrotation Yrotation Zrotation
									End Site
									{
										OFFSET 0 0 0
									}
								}
							}
						}
						JOINT LeftShoulder_virtual
						{
							OFFSET 0.000000 0.000000 0.000000
							CHANNELS 3 Xrotation Yrotation Zrotation
							JOINT LeftShoulder
							{
								OFFSET 15.263000 10.923401 -0.547700
								CHANNELS 3 Xrotation Yrotation Zrotation
								JOINT LeftArm
								{
									OFFSET 25.438599 -2.830597 -13.032500
									CHANNELS 3 Xrotation Yrotation Zrotation
									JOINT LeftForeArm
									{
										OFFSET 29.960503 0.000000 0.000000
										CHANNELS 3 Xrotation Yrotation Zrotation
										JOINT LeftHand
										{
											OFFSET 27.849251 0.000000 0.000000
											CHANNELS 3 Xrotation Yrotation Zrotation
											End Site
											{
												OFFSET 0 0 0
											}
										}
									}
								}
							}
						}
						JOINT RightShoulder_virtual
						{
							OFFSET 0.000000 0.000000 0.000000
							CHANNELS 3 Xrotation Yrotation Zrotation
							JOINT RightShoulder
							{
								OFFSET -15.263000 10.923401 -0.547700
								CHANNELS 3 Xrotation Yrotation Zrotation
								JOINT RightArm
								{
									OFFSET -25.438599 -2.830597 -13.032500
									CHANNELS 3 Xrotation Yrotation Zrotation
									JOINT RightForeArm
									{
										OFFSET -29.960503 0.000000 0.000000
										CHANNELS 3 Xrotation Yrotation Zrotation
										JOINT RightHand
										{
											OFFSET -27.849251 0.000000 0.000000
											CHANNELS 3 Xrotation Yrotation Zrotation
											End Site
											{
												OFFSET 0 0 0
											}
										}
									}
								}
							}
						}
					}
				}
			}
		}
	}
}
MOTION
Frames: 9
Frame Time: 0.03333333
0.955701 114.233963 1.737377 0.000000 0.000000 0.000000 -87.521375 3.845336 6.058753 -8.399077 18.827924 21.959309 11.516053 -0.688272 -0.762898 12.840667 36.544470 -31.451590 0.000000 0.000000 0.000000 -87.908564 6.239148 6.192212 -8.287489 -14.756610 -16.179818 12.436706 -6.955355 -8.647246 21.497892 -23.535281 32.478338 0.000000 0.000000 0.000000 -87.403083 5.171743 7.280974 0.419002 -1.981947 -3.764882 4.486793 2.677498 -0.352685 17.429420 3.323794 -1.972687 0.000000 0.000000 0.000000 16.574543 2.965785 -1.876226 -0.899401 0.028977 -1.275737 0.000000 0.000000 0.000000 16.760086 2.999055 -2.369188 0.321614 4.170927 1.184385 13.023586 -50.808930 -39.943052 -6.045736 -72.164534 -4.131655 0.000000 0.000000 0.000000 16.181411 3.186586 -2.238684 0.575885 3.296767 17.164943 -29.510078 37.333322 58.429017 178.776978 55.599147 -178.620266 0.000000 0.000000 0.000000 
0.900536 114.153702 1.807201 0.000000 0.000000 0.000000 -87.661448 3.360302 5.832223 -8.844248 19.310915 22.382284 12.219843 0.024093 -0.767828 13.453081 36.918579 -31.036308 0.000000 0.000000 0.000000 -88.071096 5.730384 5.947310 -8.365174 -14.822583 -16.070708 12.198089 -7.022570 -8.497544 21.593010 -23.676823 32.226919 0.000000 0.000000 0.000000 -87.540001 4.658910 7.082734 0.383987 -2.019330 -3.789891 4.459897 2.616724 -0.466227 16.877133 3.179908 -1.896153 0.000000 0.000000 0.000000 15.948458 2.848674 -1.795534 -0.772407 -0.002458 -1.193043 0.000000 0.000000 0.000000 16.130815 2.867076 -2.292911 0.489244 3.980117 1.179393 14.031898 -50.100694 -39.935928 -6.246202 -72.514493 -4.275395 0.000000 0.000000 0.000000 15.593732 3.092242 -2.132249 0.605081 3.237749 17.109287 -29.704885 37.671307 59.127158 178.647095 56.427553 -178.543945 0.000000 0.000000 0.000000 
0.847654 114.094193 1.926670 0.000000 0.000000 0.000000 -87.488064 3.175635 5.577946 -9.438299 19.430198 22.739846 12.663211 0.633677 -0.635490 14.400786 37.302460 -30.615278 0.000000 0.000000 0.000000 -88.026809 5.500140 5.705016 -8.580540 -14.837934 -15.918692 11.611347 -7.013266 -8.426729 23.034745 -23.540817 32.187997 0.000000 0.000000 0.000000 -87.440936 4.358854 6.805055 0.376894 -2.059815 -3.811253 4.408105 2.481083 -0.499188 16.135451 2.903776 -1.727924 0.000000 0.000000 0.000000 15.109406 2.598179 -1.623953 -0.666320 -0.034056 -1.113023 0.000000 0.000000 0.000000 15.325063 2.605601 -2.124648 0.643263 3.735757 1.152801 14.998809 -49.188331 -40.507933 -6.251644 -72.665215 -4.255458 0.000000 0.000000 0.000000 14.812664 2.864450 -1.952957 0.620267 3.270312 16.945453 -29.062062 37.936769 59.010519 178.581347 56.770483 -178.466546 0.000000 0.000000 0.000000 
0.795450 114.084015 2.078911 0.000000 0.000000 0.000000 -87.047148 3.220272 5.313931 -9.932660 19.174479 22.947248 12.649253 0.927902 -0.397488 15.444962 37.437530 -30.503229 0.000000 0.000000 0.000000 -87.759045 5.491338 5.465410 -8.841396 -14.783048 -15.696569 10.861305 -6.967393 -8.448614 24.856156 -23.441336 32.128896 0.000000 0.000000 0.000000 -87.118831 4.269828 6.477893 0.368574 -2.108004 -3.822908 4.343559 2.272830 -0.473669 15.231506 2.501102 -1.489519 0.000000 0.000000 0.000000 14.111155 2.231127 -1.378558 -0.587346 -0.060593 -1.035905 0.000000 0.000000 0.000000 14.366234 2.219528 -1.883537 0.762723 3.417653 1.061389 15.802841 -48.056361 -41.810269 -6.057912 -72.581838 -4.059526 0.000000 0.000000 0.000000 13.880238 2.508996 -1.718797 0.616316 3.364971 16.718669 -27.459420 38.179415 57.829217 178.626427 56.494107 -178.431070 0.000000 0.000000 0.000000 
0.737222 114.096497 2.279617 0.000000 0.000000 0.000000 -86.534050 3.424789 5.099118 -10.405653 18.984910 23.137973 12.340461 1.036929 -0.224666 16.443337 37.289223 -30.758452 0.000000 0.000000 0.000000 -87.325690 5.571789 5.234616 -9.130258 -14.755449 -15.449587 10.300360 -6.975111 -8.456637 26.290947 -23.568908 32.006967 0.000000 0.000000 0.000000 -86.644296 4.334982 6.163000 0.407467 -2.065896 -3.855961 4.257262 2.010108 -0.404345 14.214974 2.013106 -1.205238 0.000000 0.000000 0.000000 13.042712 1.779185 -1.087019 -0.534707 -0.079640 -0.971594 0.000000 0.000000 0.000000 13.318514 1.765814 -1.602636 0.839740 3.029022 0.877290 16.458178 -46.663702 -43.739934 -5.681152 -72.351798 -3.689592 0.000000 0.000000 0.000000 12.852838 2.061902 -1.455948 0.588513 3.457116 16.479826 -25.148765 38.342671 55.924021 178.780789 55.903056 -178.468021 0.000000 0.000000 0.000000 
0.691607 114.113541 2.450436 0.000000 0.000000 0.000000 -86.115927 3.674652 4.944341 -11.010535 19.022673 23.406135 11.960151 1.087281 -0.203462 17.373295 36.964612 -31.192992 0.000000 0.000000 0.000000 -86.832195 5.696276 5.045112 -9.451100 -14.903039 -15.284379 10.030113 -7.091341 -8.377349 27.168833 -23.838952 31.887203 0.000000 0.000000 0.000000 -86.146929 4.444893 5.903438 0.448980 -1.993527 -3.833218 4.159863 1.712657 -0.301682 13.167157 1.500854 -0.918144 0.000000 0.000000 0.000000 11.990363 1.299653 -0.796383 -0.511342 -0.090869 -0.924177 0.000000 0.000000 0.000000 12.256463 1.294363 -1.322298 0.864824 2.599551 0.640146 17.053709 -45.086055 -45.904387 -5.239255 -72.066132 -3.269706 0.000000 0.000000 0.000000 11.811445 1.580684 -1.195138 0.525286 3.493733 16.245175 -22.447895 38.406379 53.797947 178.957732 55.472942 -178.543686 0.000000 0.000000 0.000000 
0.639731 114.116661 2.592545 0.000000 0.000000 0.000000 -85.831859 3.871496 4.840935 -11.766726 19.188259 23.708586 11.848922 1.233479 -0.252325 18.402237 36.812875 -31.413840 0.000000 0.000000 0.000000 -86.383479 5.747932 4.832790 -9.762718 -15.189492 -15.240360 9.981183 -7.205350 -8.203992 27.745425 -24.005000 31.839005 0.000000 0.000000 0.000000 -85.712870 4.518804 5.740251 0.465297 -1.916074 -3.796652 4.034975 1.421988 -0.174998 12.147660 1.021228 -0.667332 0.000000 0.000000 0.000000 11.017779 0.850967 -0.546794 -0.511432 -0.094439 -0.894338 0.000000 0.000000 0.000000 11.237767 0.862892 -1.086345 0.844118 2.130073 0.361670 17.651111 -43.453124 -47.914586 -4.793098 -71.796695 -2.863530 0.000000 0.000000 0.000000 10.819019 1.127551 -0.966050 0.411493 3.461042 16.019498 -19.741299 38.381732 51.938780 179.102518 55.517308 -178.649076 0.000000 0.000000 0.000000 
0.576948 114.109940 2.711956 0.000000 0.000000 0.000000 -85.688295 3.876788 4.733075 -12.271366 19.299973 23.826934 11.894771 1.469504 -0.228209 19.097511 37.014339 -31.191732 0.000000 0.000000 0.000000 -86.091891 5.663532 4.628908 -9.946362 -15.351531 -15.244654 9.987874 -7.194889 -8.036532 28.368269 -23.890557 31.914660 0.000000 0.000000 0.000000 -85.449567 4.489232 5.669912 0.431841 -1.884009 -3.766176 3.871244 1.180340 -0.029799 11.179473 0.629857 -0.476611 0.000000 0.000000 0.000000 10.145952 0.475878 -0.365567 -0.530765 -0.093884 -0.883291 0.000000 0.000000 0.000000 10.284463 0.513860 -0.913028 0.791407 1.617101 0.073098 18.391136 -41.908613 -49.444207 -4.420340 -71.719042 -2.567448 0.000000 0.000000 0.000000 9.877999 0.754253 -0.782647 0.230406 3.414020 15.820636 -17.196272 38.262440 50.530597 179.200873 56.117483 -178.780229 0.000000 0.000000 0.000000 
0.530023 114.111206 2.782848 0.000000 0.000000 0.000000 -85.616865 3.640848 4.599394 -12.067184 19.087259 23.545988 11.663970 1.552411 -0.050301 18.841929 37.338097 -30.697571 0.000000 0.000000 0.000000 -85.993769 5.491816 4.526942 -9.903585 -15.295094 -15.251790 9.796923 -7.061675 -8.011093 28.850046 -23.666141 31.948982 0.000000 0.000000 0.000000 -85.379823 4.339011 5.665940 0.378225 -1.855676 -3.740471 3.666049 1.016786 0.149660 10.269961 0.345629 -0.350535 0.000000 0.000000 0.000000 9.366717 0.198944 -0.256580 -0.565903 -0.092408 -0.881951 0.000000 0.000000 0.000000 9.390773 0.253011 -0.807934 0.730140 1.046892 -0.213666 19.347686 -40.559801 -50.416427 -4.116221 -71.836419 -2.381847 0.000000 0.000000 0.000000 9.001487 0.484959 -0.648681 -0.013146 3.417449 15.665573 -14.686218 38.008186 49.402181 179.256334 57.092318 -178.918540 0.000000 0.000000 0.000000 
